<svg width="48" height="48" viewBox="0 0 48 48" fill="none" xmlns="http://www.w3.org/2000/svg">
<path d="M28.2067 28.1828L46.7812 18.8945V36.8945L28.2067 46.1828V28.1828Z" fill="url(#paint0_linear_699_6118)"/>
<path d="M2.99631 16.9001L21.5709 7.61182V25.6118L2.99631 34.9001V16.9001Z" fill="url(#paint1_linear_699_6118)"/>
<path d="M1.95016 16.4281L2.99868 16.8908V34.8908L1.95016 34.4281V16.4281Z" fill="url(#paint2_linear_699_6118)"/>
<path d="M18 23.6172L28.2067 28.1829V46.1829L18 41.6172V23.6172Z" fill="url(#paint3_linear_699_6118)"/>
<path d="M0.206665 15.1829L29.2067 28.1829V29.1829L0.206665 16.1829V15.1829Z" fill="#F6B44E"/>
<path d="M29.2067 28.1828L47.7812 18.8945V19.8945L29.2067 29.1828V28.1828Z" fill="#DC892F"/>
<path d="M18.7933 5.88977L0.206665 15.1828L29.2067 28.1828L47.7933 18.8898L18.7933 5.88977Z" fill="#FFD893"/>
<path d="M18.2297 13.0469V13.4033C18.2297 14.6638 20.0946 15.6867 22.3935 15.6867C24.6924 15.6867 26.5573 14.6535 26.5573 13.4033V13.0469H18.2297Z" fill="#DC892F"/>
<path d="M18.2297 13.0468C18.2297 13.6524 18.6684 14.2332 19.4492 14.6614C20.2301 15.0896 21.2892 15.3302 22.3935 15.3302C23.4978 15.3302 24.5569 15.0896 25.3378 14.6614C26.1186 14.2332 26.5573 13.6524 26.5573 13.0468C26.5573 12.4412 26.1186 11.8604 25.3378 11.4322C24.5569 11.004 23.4978 10.7634 22.3935 10.7634C21.2892 10.7634 20.2301 11.004 19.4492 11.4322C18.6684 11.8604 18.2297 12.4412 18.2297 13.0468Z" fill="#FFC45D"/>
<path d="M29.4555 7.20157C29.4559 7.11054 29.4322 7.02103 29.3868 6.94211C29.3415 6.86318 29.276 6.79764 29.1972 6.75213L18.4105 0.439236C18.3315 0.393576 18.2417 0.369686 18.1504 0.369998C18.0591 0.370311 18.0432 0.399731 17.8908 0.441015C17.7383 0.4823 17.6664 0.498653 17.4591 0.588154C17.2518 0.677655 17.1576 0.866079 17.2094 0.771867C17.2613 0.677655 17.6589 8.92961 17.6589 8.92961C17.6585 9.02064 17.6822 9.11015 17.7276 9.18908C17.7729 9.268 17.8383 9.33354 17.9172 9.37906L21.4094 11.4196V12.892L22.5046 13.5429L22.4814 12.0628C22.4814 12.0628 28.0825 15.8519 28.1616 15.8976C28.2406 15.9432 28.4518 15.9827 28.5431 15.9824C28.6344 15.982 29.1216 15.7235 29.2004 15.6773C29.2791 15.6311 29.3442 15.5648 29.389 15.4853C29.4339 15.4057 29.4568 15.3157 29.4555 15.2244V7.20157Z" fill="url(#paint4_linear_699_6118)"/>
<path d="M28.8304 7.48047C28.8308 7.38944 28.8071 7.29993 28.7617 7.221C28.7163 7.14207 28.6509 7.07654 28.5721 7.03102L17.7854 0.723294C17.7064 0.677634 17.6166 0.653743 17.5253 0.654056C17.434 0.654368 17.3444 0.678872 17.2657 0.725073C17.1869 0.771273 17.1218 0.837519 17.077 0.917064C17.0322 0.996609 17.0092 1.08661 17.0105 1.1779L17.0209 9.22142C17.0205 9.31245 17.0442 9.40196 17.0895 9.48089C17.1349 9.55981 17.2003 9.62535 17.2792 9.67087L21.2725 11.9956V12.817L22.3677 13.4679V12.6388L28.0658 15.9708C28.1449 16.0165 28.2346 16.0404 28.326 16.0401C28.4173 16.0398 28.5068 16.0153 28.5856 15.9691C28.6643 15.9229 28.7294 15.8566 28.7743 15.7771C28.8191 15.6975 28.842 15.6075 28.8407 15.5162L28.8304 7.48047Z" fill="#ECAA46"/>
<path d="M27.4795 14.9041L17.9223 9.31705C17.8525 9.27611 17.7945 9.21764 17.7542 9.14741C17.7139 9.07719 17.6926 8.99766 17.6924 8.91668L17.6718 2.20084C17.6717 2.1192 17.6932 2.03898 17.734 1.96826C17.7747 1.89754 17.8334 1.8388 17.9041 1.79796C17.9748 1.75712 18.055 1.73561 18.1367 1.7356C18.2183 1.73558 18.2985 1.75707 18.3692 1.79789L27.9264 7.38495C27.998 7.42512 28.0578 7.48358 28.0995 7.55436C28.1413 7.62515 28.1635 7.70573 28.164 7.7879L28.1847 14.5037C28.1851 14.5863 28.1635 14.6675 28.1221 14.739C28.0807 14.8104 28.0211 14.8696 27.9493 14.9104C27.8775 14.9511 27.7961 14.972 27.7135 14.9709C27.631 14.9698 27.5502 14.9468 27.4795 14.9041Z" fill="white"/>
<path d="M12.2836 16.0459L19.2758 20.1219V20.6385L12.2836 16.5521V16.0355V16.0459Z" fill="#ECAA46"/>
<path d="M22.3368 18.3602L19.2759 20.1218V20.6385L22.3368 18.851V18.3602Z" fill="#DC892F"/>
<path d="M22.3367 18.3602L15.3135 14.3462L12.2836 16.0484L19.2758 20.1115L22.3367 18.3602Z" fill="#FFC45D"/>
<path d="M20.9987 18.1303L15.5072 14.9971L15.2722 15.165L20.7378 18.3369L20.9987 18.1303Z" fill="#DC892F"/>
<defs>
<linearGradient id="paint0_linear_699_6118" x1="37.494" y1="18.8945" x2="37.494" y2="49.1828" gradientUnits="userSpaceOnUse">
<stop stop-color="#B15C00"/>
<stop offset="1" stop-color="#DC892F"/>
</linearGradient>
<linearGradient id="paint1_linear_699_6118" x1="12.2836" y1="7.61182" x2="12.2836" y2="37.9001" gradientUnits="userSpaceOnUse">
<stop stop-color="#B15C00"/>
<stop offset="1" stop-color="#DC892F"/>
</linearGradient>
<linearGradient id="paint2_linear_699_6118" x1="13.7067" y1="15.1829" x2="13.7067" y2="49.1829" gradientUnits="userSpaceOnUse">
<stop stop-color="#E08800"/>
<stop offset="1" stop-color="#F6B44E"/>
</linearGradient>
<linearGradient id="paint3_linear_699_6118" x1="13.7067" y1="15.1829" x2="13.7067" y2="49.1828" gradientUnits="userSpaceOnUse">
<stop stop-color="#E08800"/>
<stop offset="1" stop-color="#F6B44E"/>
</linearGradient>
<linearGradient id="paint4_linear_699_6118" x1="17.6356" y1="0.369994" x2="29.3164" y2="16.2325" gradientUnits="userSpaceOnUse">
<stop stop-color="#FFC45D"/>
<stop offset="0.593607" stop-color="#FFC45D"/>
<stop offset="0.659843" stop-color="#DC892F"/>
<stop offset="1" stop-color="#DC892F"/>
</linearGradient>
</defs>
</svg>
